<svg id="SvgjsSvg1000" xmlns="http://www.w3.org/2000/svg" version="1.1" xmlns:xlink="http://www.w3.org/1999/xlink" xmlns:svgjs="http://svgjs.com/svgjs" width="40" height="40" viewBox="0 0 40 40"><title>Эллипс 693</title><desc>Created with Avocode.</desc><defs id="SvgjsDefs1001"><clipPath id="SvgjsClipPath1009"><path id="SvgjsPath1008" d="M778 1904C789.046 1904 798 1912.95 798 1924C798 1935.05 789.046 1944 778 1944C766.954 1944 758 1935.05 758 1924C758 1912.95 766.954 1904 778 1904Z " fill="#ffffff"></path></clipPath><clipPath id="SvgjsClipPath1012"><path id="SvgjsPath1011" d="M771.293 1915.22L772 1914.51L780.485 1923L779.98711 1923.5L780.485 1924L772 1932.49L771.293 1931.78L779.56812 1923.5ZM781.293 1915.22L782 1914.51L790.485 1923L789.98711 1923.5L790.485 1924L782 1932.49L781.293 1931.78L789.56812 1923.5Z " fill="#ffffff"></path></clipPath></defs><path id="SvgjsPath1007" d="M778 1904C789.046 1904 798 1912.95 798 1924C798 1935.05 789.046 1944 778 1944C766.954 1944 758 1935.05 758 1924C758 1912.95 766.954 1904 778 1904Z " fill-opacity="0" fill="#ffffff" stroke-dasharray="0" stroke-linejoin="miter" stroke-linecap="butt" stroke-opacity="1" stroke="#21669b" stroke-miterlimit="50" stroke-width="2" clip-path="url(&quot;#SvgjsClipPath1009&quot;)" transform="matrix(1,0,0,1,-758,-1904)"></path><path id="SvgjsPath1010" d="M771.293 1915.22L772 1914.51L780.485 1923L779.98711 1923.5L780.485 1924L772 1932.49L771.293 1931.78L779.56812 1923.5ZM781.293 1915.22L782 1914.51L790.485 1923L789.98711 1923.5L790.485 1924L782 1932.49L781.293 1931.78L789.56812 1923.5Z " fill-opacity="0" fill="#ffffff" stroke-dasharray="0" stroke-linejoin="miter" stroke-linecap="butt" stroke-opacity="1" stroke="#21669b" stroke-miterlimit="50" stroke-width="2" clip-path="url(&quot;#SvgjsClipPath1012&quot;)" transform="matrix(1,0,0,1,-758,-1904)"></path></svg>