<svg id="SvgjsSvg1000" xmlns="http://www.w3.org/2000/svg" version="1.1" xmlns:xlink="http://www.w3.org/1999/xlink" xmlns:svgjs="http://svgjs.com/svgjs" width="30" height="20" viewBox="0 0 30 20"><title>Прямоугольник, скругл. углы 2</title><desc>Created with Avocode.</desc><defs id="SvgjsDefs1001"></defs><path id="SvgjsPath1007" d="M1514.5 83.9996L1541.5 83.9996C1542.33 83.9996 1543 84.6711 1543 85.4997C1543 86.3283 1542.33 86.99990000000001 1541.5 86.99990000000001L1514.5 86.99990000000001C1513.67 86.99990000000001 1513 86.32830000000001 1513 85.4997C1513 84.67110000000001 1513.67 83.9996 1514.5 83.9996Z " fill="#ffffff" fill-opacity="1" transform="matrix(1,0,0,1,-1513,-83)"></path><path id="SvgjsPath1008" d="M1514.5 91.9999L1532.5 91.9999C1533.33 91.9999 1534 92.67139999999999 1534 93.4995C1534 94.32809999999999 1533.33 94.9996 1532.5 94.9996L1514.5 94.9996C1513.67 94.9996 1513 94.3281 1513 93.4995C1513 92.67139999999999 1513.67 91.9999 1514.5 91.9999Z " fill="#ffffff" fill-opacity="1" transform="matrix(1,0,0,1,-1513,-83)"></path><path id="SvgjsPath1009" d="M1514.5 99.9996L1537.5 99.9996C1538.33 99.9996 1539 100.671 1539 101.5C1539 102.328 1538.33 103 1537.5 103L1514.5 103C1513.67 103 1513 102.328 1513 101.5C1513 100.671 1513.67 99.9996 1514.5 99.9996Z " fill="#ffffff" fill-opacity="1" transform="matrix(1,0,0,1,-1513,-83)"></path></svg>