<svg id="SvgjsSvg1010" xmlns="http://www.w3.org/2000/svg" version="1.1" xmlns:xlink="http://www.w3.org/1999/xlink" xmlns:svgjs="http://svgjs.com/svgjs" width="30" height="19" viewBox="0 0 30 19"><title>Прямоугольник, скругл. углы 2</title><desc>Created with Avocode.</desc><defs id="SvgjsDefs1011"></defs><path id="SvgjsPath1012" d="M1514.5 4364L1541.5 4364C1542.33 4364 1543 4364.67 1543 4365.5C1543 4366.33 1542.33 4367 1541.5 4367L1514.5 4367C1513.67 4367 1513 4366.33 1513 4365.5C1513 4364.67 1513.67 4364 1514.5 4364Z " fill="#ffffff" fill-opacity="1" transform="matrix(1,0,0,1,-1513,-4364)"></path><path id="SvgjsPath1013" d="M1514.5 4372L1532.5 4372C1533.33 4372 1534 4372.67 1534 4373.5C1534 4374.33 1533.33 4375 1532.5 4375L1514.5 4375C1513.67 4375 1513 4374.33 1513 4373.5C1513 4372.67 1513.67 4372 1514.5 4372Z " fill="#ffffff" fill-opacity="1" transform="matrix(1,0,0,1,-1513,-4364)"></path><path id="SvgjsPath1014" d="M1514.5 4380L1537.5 4380C1538.33 4380 1539 4380.67 1539 4381.5C1539 4382.33 1538.33 4383 1537.5 4383L1514.5 4383C1513.67 4383 1513 4382.33 1513 4381.5C1513 4380.67 1513.67 4380 1514.5 4380Z " fill="#ffffff" fill-opacity="1" transform="matrix(1,0,0,1,-1513,-4364)"></path></svg>