<svg id="SvgjsSvg1000" xmlns="http://www.w3.org/2000/svg" version="1.1" xmlns:xlink="http://www.w3.org/1999/xlink" xmlns:svgjs="http://svgjs.com/svgjs" width="48" height="48" viewBox="0 0 48 48"><title>Эллипс 577</title><desc>Created with Avocode.</desc><defs id="SvgjsDefs1001"><clipPath id="SvgjsClipPath1009"><path id="SvgjsPath1008" d="M1075 7386C1088.25 7386 1099 7396.74 1099 7410C1099 7423.25 1088.25 7434 1075 7434C1061.75 7434 1051 7423.25 1051 7410C1051 7396.74 1061.75 7386 1075 7386Z " fill="#ffffff"></path></clipPath><clipPath id="SvgjsClipPath1012"><path id="SvgjsPath1011" d="M1073 7410.14L1073 7400L1083 7410.14L1073 7420Z " fill="#ffffff"></path></clipPath></defs><path id="SvgjsPath1007" d="M1075 7386C1088.25 7386 1099 7396.74 1099 7410C1099 7423.25 1088.25 7434 1075 7434C1061.75 7434 1051 7423.25 1051 7410C1051 7396.74 1061.75 7386 1075 7386Z " fill-opacity="0" fill="#ffffff" stroke-dasharray="0" stroke-linejoin="miter" stroke-linecap="butt" stroke-opacity="1" stroke="#ffffff" stroke-miterlimit="50" stroke-width="2" clip-path="url(&quot;#SvgjsClipPath1009&quot;)" transform="matrix(1,0,0,1,-1051,-7386)"></path><path id="SvgjsPath1010" d="M1073 7410.14L1073 7400L1083 7410.14L1073 7420Z " fill-opacity="0" fill="#ffffff" stroke-dasharray="0" stroke-linejoin="miter" stroke-linecap="butt" stroke-opacity="1" stroke="#ffffff" stroke-miterlimit="50" stroke-width="2" clip-path="url(&quot;#SvgjsClipPath1012&quot;)" transform="matrix(1,0,0,1,-1051,-7386)"></path></svg>