<svg id="SvgjsSvg1000" xmlns="http://www.w3.org/2000/svg" version="1.1" xmlns:xlink="http://www.w3.org/1999/xlink" xmlns:svgjs="http://svgjs.com/svgjs" width="32" height="32" viewBox="0 0 32 32"><title>Прямоугольник, скругл. углы 730</title><desc>Created with Avocode.</desc><defs id="SvgjsDefs1001"><clipPath id="SvgjsClipPath1009"><path id="SvgjsPath1008" d="M944.565 3892.56C949.2510000000001 3887.88 956.849 3887.88 961.5350000000001 3892.56C965.73873 3896.76642 966.17217 3903.31369 962.8353200000001 3908.00283L971.4350000000002 3916.61C972.2160000000001 3917.3900000000003 972.2160000000001 3918.65 971.4350000000002 3919.4300000000003C970.6540000000002 3920.2200000000003 969.3880000000001 3920.2200000000003 968.6070000000002 3919.4300000000003L960.0069300000002 3910.8327400000003C955.3205000000003 3914.1707300000003 948.7702000000003 3913.7398200000002 944.5650000000003 3909.5400000000004C939.8790000000002 3904.8500000000004 939.8790000000002 3897.2500000000005 944.5650000000003 3892.5600000000004Z " fill="#ffffff"></path></clipPath><clipPath id="SvgjsClipPath1012"><path id="SvgjsPath1011" d="M953 3892C957.971 3892 962 3896.03 962 3901C962 3905.97 957.971 3910 953 3910C948.029 3910 944 3905.97 944 3901C944 3896.03 948.029 3892 953 3892Z " fill="#ffffff"></path></clipPath></defs><path id="SvgjsPath1007" d="M944.565 3892.56C949.2510000000001 3887.88 956.849 3887.88 961.5350000000001 3892.56C965.73873 3896.76642 966.17217 3903.31369 962.8353200000001 3908.00283L971.4350000000002 3916.61C972.2160000000001 3917.3900000000003 972.2160000000001 3918.65 971.4350000000002 3919.4300000000003C970.6540000000002 3920.2200000000003 969.3880000000001 3920.2200000000003 968.6070000000002 3919.4300000000003L960.0069300000002 3910.8327400000003C955.3205000000003 3914.1707300000003 948.7702000000003 3913.7398200000002 944.5650000000003 3909.5400000000004C939.8790000000002 3904.8500000000004 939.8790000000002 3897.2500000000005 944.5650000000003 3892.5600000000004Z " fill-opacity="0" fill="#ffffff" stroke-dasharray="0" stroke-linejoin="miter" stroke-linecap="butt" stroke-opacity="1" stroke="#000000" stroke-miterlimit="50" stroke-width="2" clip-path="url(&quot;#SvgjsClipPath1009&quot;)" transform="matrix(1,0,0,1,-941,-3889)"></path><path id="SvgjsPath1010" d="M953 3892C957.971 3892 962 3896.03 962 3901C962 3905.97 957.971 3910 953 3910C948.029 3910 944 3905.97 944 3901C944 3896.03 948.029 3892 953 3892Z " fill-opacity="0" fill="#ffffff" stroke-dasharray="0" stroke-linejoin="miter" stroke-linecap="butt" stroke-opacity="1" stroke="#000000" stroke-miterlimit="50" stroke-width="2" clip-path="url(&quot;#SvgjsClipPath1012&quot;)" transform="matrix(1,0,0,1,-941,-3889)"></path></svg>